<?xml version="1.0" standalone="no"?>
<!DOCTYPE svg PUBLIC "-//W3C//DTD SVG 20010904//EN"
 "http://www.w3.org/TR/2001/REC-SVG-20010904/DTD/svg10.dtd">
<svg version="1.0" xmlns="http://www.w3.org/2000/svg"
 width="3883.000000pt" height="3883.000000pt" viewBox="0 0 3883.000000 3883.000000"
 preserveAspectRatio="xMidYMid meet">
<metadata>
Created by potrace 1.11, written by Peter Selinger 2001-2013
</metadata>
<g transform="translate(0.000000,3883.000000) scale(0.100000,-0.100000)"
fill="#000000" stroke="none">
<path d="M21770 31499 c0 -5 -11 -34 -25 -64 -13 -29 -45 -105 -70 -167 -26
-62 -52 -126 -60 -143 -7 -16 -66 -156 -130 -310 -65 -154 -154 -365 -198
-470 -93 -222 -136 -325 -205 -490 -27 -66 -192 -460 -366 -875 -175 -415
-357 -849 -406 -965 -188 -449 -438 -1045 -572 -1365 -77 -184 -148 -353 -158
-375 -9 -22 -57 -134 -105 -250 -48 -115 -93 -223 -100 -240 -8 -16 -44 -102
-80 -190 -37 -88 -72 -173 -80 -190 -7 -16 -30 -70 -50 -120 -20 -49 -43 -105
-51 -122 -27 -64 -42 -99 -79 -188 -21 -49 -46 -109 -56 -132 -11 -24 -19 -45
-19 -49 0 -3 -11 -29 -24 -57 -13 -29 -69 -162 -125 -297 -56 -135 -106 -254
-111 -265 -15 -34 -67 -157 -93 -220 -41 -101 -417 -999 -427 -1020 -8 -18
-80 -189 -252 -600 -27 -66 -59 -139 -69 -162 -10 -24 -19 -45 -19 -48 0 -3
-10 -27 -21 -53 -32 -71 -230 -542 -556 -1322 -63 -151 -120 -288 -128 -305
-7 -16 -36 -86 -65 -155 -29 -69 -58 -138 -65 -155 -7 -16 -30 -70 -50 -120
-47 -114 -49 -119 -78 -185 -13 -30 -75 -176 -137 -325 -136 -328 -138 -333
-155 -370 -8 -16 -71 -167 -140 -335 -70 -168 -133 -318 -140 -335 -11 -24
-94 -223 -185 -440 -7 -16 -19 -43 -26 -60 -6 -16 -60 -145 -118 -285 -59
-140 -111 -264 -116 -275 -5 -11 -93 -220 -195 -465 -102 -245 -190 -454 -195
-465 -5 -11 -88 -209 -185 -440 -96 -231 -180 -429 -185 -440 -5 -11 -32 -76
-60 -145 -29 -69 -60 -144 -71 -167 -10 -24 -19 -45 -19 -48 0 -3 -9 -24 -19
-48 -11 -23 -55 -127 -99 -232 -44 -104 -108 -257 -142 -338 -34 -81 -61 -149
-59 -151 10 -7 223 -99 329 -141 75 -30 750 -313 775 -325 20 -9 468 -197 740
-310 83 -34 168 -70 190 -80 39 -17 318 -134 1085 -455 352 -146 415 -173 465
-195 11 -5 36 -16 56 -23 l36 -15 23 57 c13 31 33 79 45 106 12 28 37 86 55
130 18 44 41 98 51 120 9 22 63 150 119 285 56 135 112 270 125 300 13 30 56
132 95 225 39 94 75 179 80 190 5 11 50 119 101 240 111 268 117 282 134 320
8 17 19 42 24 56 13 35 397 951 422 1006 10 24 19 45 19 48 0 2 14 34 30 70
17 36 30 69 30 74 0 4 6 21 14 37 15 31 150 350 211 499 20 50 43 104 51 120
7 17 50 118 94 225 45 107 87 209 95 225 7 17 30 71 50 120 20 50 46 110 57
135 11 25 26 61 33 81 7 19 22 55 33 80 11 24 30 69 42 99 12 30 31 74 41 97
11 24 35 82 55 130 20 49 42 102 49 118 49 114 144 340 440 1050 108 259 205
488 215 510 10 22 39 92 65 155 26 63 101 243 167 400 144 342 141 334 143
340 2 6 0 2 105 250 45 107 97 233 117 280 19 47 43 103 53 125 10 22 34 81
54 130 21 50 43 104 51 120 7 17 77 183 155 370 78 187 148 354 155 370 7 17
72 170 143 340 71 171 170 407 220 525 50 118 113 271 142 340 28 69 59 143
69 165 28 61 138 327 145 353 4 12 10 22 14 22 5 0 43 -174 58 -270 1 -8 7
-40 13 -70 5 -30 22 -118 36 -195 14 -77 32 -172 40 -212 8 -39 18 -88 21
-109 3 -20 8 -46 10 -58 5 -22 20 -106 30 -166 3 -19 7 -37 9 -40 2 -3 6 -24
9 -46 4 -22 9 -51 12 -64 3 -14 7 -38 10 -55 8 -47 63 -339 85 -450 11 -55 22
-113 25 -130 2 -16 7 -37 9 -45 2 -8 7 -35 10 -60 4 -25 11 -65 17 -90 5 -25
12 -61 14 -80 3 -19 7 -42 9 -50 2 -8 7 -31 10 -50 4 -27 19 -99 30 -150 0 -3
4 -27 9 -53 4 -27 9 -59 12 -70 2 -12 15 -83 29 -157 13 -74 29 -155 35 -180
5 -25 14 -72 20 -105 10 -60 15 -87 25 -135 2 -14 7 -41 10 -60 3 -19 12 -66
20 -105 7 -38 23 -122 35 -185 18 -98 47 -248 65 -340 3 -14 7 -41 10 -60 2
-19 11 -68 19 -107 16 -75 25 -123 31 -158 2 -11 14 -81 28 -155 14 -74 28
-146 30 -160 23 -125 60 -324 67 -360 11 -49 46 -236 55 -287 3 -18 14 -77 24
-130 24 -123 33 -174 37 -193 1 -8 7 -40 13 -70 5 -30 24 -129 40 -220 17 -91
33 -176 36 -190 5 -27 32 -166 45 -240 5 -25 11 -58 14 -75 3 -16 10 -55 16
-85 6 -30 12 -65 14 -78 3 -12 17 -85 31 -162 14 -77 28 -150 31 -162 2 -13 6
-36 9 -53 3 -16 8 -41 10 -55 7 -32 9 -42 40 -210 14 -77 28 -148 29 -157 13
-66 39 -202 42 -223 3 -14 16 -82 29 -153 14 -70 27 -139 29 -155 2 -15 11
-63 20 -107 10 -44 20 -98 22 -120 3 -22 9 -53 14 -70 5 -16 12 -52 16 -80 4
-27 8 -54 10 -60 2 -12 46 -242 74 -395 11 -58 22 -118 25 -135 6 -32 69 -363
87 -455 5 -30 11 -62 13 -70 1 -8 23 -23 50 -34 57 -23 20 -42 318 159 122 82
230 154 239 160 9 5 70 46 135 90 65 45 289 195 498 335 209 140 382 257 385
260 3 3 13 10 22 15 10 6 163 108 340 227 494 331 1322 888 1723 1156 198 133
367 246 375 252 8 6 143 96 300 202 157 105 483 323 725 486 242 162 618 415
835 560 217 146 517 347 665 447 993 668 1338 897 1333 884 -4 -8 -32 -75 -63
-149 -31 -74 -79 -189 -107 -255 -27 -66 -56 -133 -63 -150 -8 -16 -43 -100
-78 -185 -121 -290 -408 -975 -422 -1005 -7 -16 -30 -70 -50 -120 -20 -49 -42
-103 -50 -120 -7 -16 -66 -156 -130 -310 -64 -154 -123 -293 -130 -310 -7 -16
-37 -86 -65 -155 -29 -69 -58 -138 -66 -155 -7 -16 -36 -86 -64 -155 -28 -69
-58 -138 -65 -155 -7 -16 -25 -59 -40 -95 -14 -36 -32 -78 -40 -95 -7 -16 -25
-59 -39 -95 -15 -36 -31 -74 -36 -85 -5 -11 -71 -166 -146 -345 -74 -179 -151
-361 -169 -405 -30 -71 -261 -621 -288 -685 -6 -14 -11 -27 -12 -30 -1 -3 -6
-16 -12 -30 -54 -127 -469 -1117 -613 -1460 -100 -239 -188 -448 -195 -465 -8
-16 -55 -129 -106 -250 -50 -121 -127 -305 -171 -410 -44 -104 -96 -228 -114
-275 -19 -47 -41 -98 -49 -115 -7 -16 -143 -338 -300 -715 -158 -377 -293
-698 -300 -715 -8 -16 -30 -70 -51 -120 -20 -49 -45 -110 -56 -135 -11 -25
-24 -55 -29 -67 -5 -13 -13 -33 -19 -45 -5 -13 -35 -84 -65 -158 -31 -74 -63
-148 -70 -165 -7 -16 -22 -52 -33 -80 -11 -27 -28 -68 -37 -90 -10 -22 -17
-41 -16 -43 1 -1 -5 -15 -13 -30 -9 -15 -63 -142 -121 -282 -58 -140 -119
-285 -135 -323 -33 -73 -36 -87 -19 -87 5 0 29 -9 52 -19 39 -17 600 -254 727
-306 127 -52 637 -266 655 -275 11 -5 135 -57 275 -115 140 -59 271 -113 290
-122 19 -8 44 -19 55 -23 11 -4 36 -15 55 -23 38 -17 407 -171 590 -247 63
-26 246 -103 405 -170 438 -185 596 -250 604 -250 10 0 13 7 141 315 61 149
120 288 129 310 10 22 51 119 91 215 40 96 81 195 92 220 33 74 36 83 61 145
22 54 172 412 200 475 5 14 11 27 11 30 1 5 112 267 141 335 8 17 30 71 50
120 21 50 43 104 50 120 21 46 38 87 110 260 36 88 70 169 75 180 26 58 90
210 199 475 68 162 131 313 141 336 10 22 53 123 95 225 42 101 83 198 90 214
8 17 23 53 33 80 11 28 34 80 51 118 17 37 31 71 31 76 0 4 6 21 14 37 8 16
49 112 91 214 98 236 213 509 225 535 5 11 45 108 90 215 44 107 85 204 89
215 5 11 16 36 24 55 8 19 50 118 92 220 42 102 82 199 90 215 7 17 56 134
109 260 53 127 101 239 106 250 5 11 38 90 73 175 82 197 144 346 163 387 8
17 14 34 14 37 0 3 11 29 24 58 14 29 71 163 127 298 56 135 144 346 196 470
52 124 117 279 145 345 27 66 56 134 63 150 7 17 47 113 90 215 42 102 96 230
119 285 24 55 87 206 141 335 53 129 106 254 116 277 11 24 35 82 55 130 72
176 196 469 215 510 10 24 19 45 19 48 0 3 9 24 19 48 11 23 42 98 71 167 28
69 55 134 60 145 12 24 164 387 227 540 25 61 54 128 64 150 10 22 29 69 44
105 14 36 30 74 34 85 5 11 16 36 24 55 8 19 40 96 71 170 31 74 61 144 66
155 5 11 120 286 256 610 135 325 252 604 259 620 8 17 44 102 80 190 37 88
72 174 80 190 7 17 77 183 155 370 129 309 167 400 205 490 7 17 61 145 120
285 58 140 113 271 122 290 8 19 19 44 23 55 4 11 20 46 34 78 14 32 26 60 26
63 0 3 7 20 14 37 8 18 52 120 96 227 177 423 232 556 245 585 12 28 32 76
132 315 19 47 41 99 48 115 14 31 129 305 172 410 14 33 33 78 42 100 44 100
84 205 80 209 -2 2 -114 50 -249 106 -135 56 -258 108 -275 115 -41 18 -148
62 -720 302 -269 113 -503 211 -520 218 -16 8 -145 62 -285 120 -402 168 -419
175 -525 220 -55 24 -167 71 -250 104 -82 34 -168 70 -190 80 -22 10 -134 58
-250 105 -115 48 -223 93 -240 101 -16 7 -144 61 -282 119 l-253 105 -267
-190 c-148 -105 -347 -247 -443 -316 -396 -281 -669 -475 -740 -524 -41 -29
-88 -63 -105 -76 -35 -27 -45 -34 -67 -48 -18 -11 -617 -435 -740 -524 -42
-31 -100 -72 -128 -91 -28 -19 -58 -41 -68 -48 -22 -17 -1163 -827 -1351 -959
-30 -21 -79 -56 -110 -79 -136 -98 -480 -342 -521 -369 -25 -16 -47 -32 -50
-36 -3 -3 -37 -28 -75 -55 -83 -57 -125 -87 -240 -169 -46 -33 -92 -66 -102
-73 -41 -29 -400 -282 -418 -296 -16 -12 -221 -158 -275 -196 -121 -85 -422
-299 -790 -560 -250 -177 -468 -332 -485 -344 -16 -11 -32 -24 -35 -27 -3 -3
-23 -18 -45 -32 -45 -30 -64 -43 -280 -197 -141 -101 -180 -120 -173 -87 1 10
-5 54 -28 187 -2 14 -9 54 -14 90 -13 82 -20 128 -26 160 -2 14 -13 84 -24
155 -28 175 -30 186 -35 215 -3 14 -7 39 -9 55 -3 17 -14 86 -25 155 -18 114
-29 182 -36 235 -2 11 -6 34 -9 50 -3 17 -12 75 -21 130 -17 108 -17 108 -39
240 -8 50 -17 107 -20 128 -17 108 -21 133 -31 187 -2 14 -16 99 -30 190 -14
91 -28 179 -31 195 -3 17 -7 39 -9 50 -3 27 -15 104 -20 135 -19 119 -25 158
-29 176 -5 26 -14 77 -26 164 -13 85 -18 117 -36 225 -18 111 -20 123 -34 210
-6 39 -13 84 -16 100 -3 17 -7 44 -10 60 -2 17 -9 55 -14 85 -5 30 -11 71 -14
90 -3 19 -12 78 -20 130 -9 52 -18 112 -22 134 -3 21 -7 48 -10 59 -2 12 -6
39 -9 62 -4 22 -17 105 -30 185 -13 80 -26 159 -28 175 -9 54 -38 240 -42 260
-23 140 -46 283 -50 313 -2 15 -6 41 -9 57 -3 17 -7 44 -10 60 -3 17 -7 44
-10 60 -10 62 -28 171 -31 195 -2 14 -6 39 -9 55 -3 17 -8 48 -11 70 -2 22 -7
51 -9 65 -3 14 -14 84 -26 155 -30 186 -30 187 -35 215 -2 14 -7 43 -10 65 -3
23 -8 52 -10 65 -3 14 -10 57 -15 95 -6 39 -17 111 -26 160 -9 50 -17 101 -19
115 -4 30 -19 121 -46 290 -11 69 -22 139 -25 155 -2 17 -9 56 -15 88 -6 33
-12 73 -14 90 -4 30 -28 186 -39 252 -3 17 -17 102 -31 190 -14 88 -28 174
-31 190 -3 17 -7 46 -10 65 -2 19 -8 58 -14 85 -5 28 -12 68 -15 90 -6 45 -11
76 -25 155 -5 30 -12 73 -15 95 -3 22 -7 51 -10 65 -3 14 -8 45 -10 70 -3 25
-8 52 -10 60 -2 8 -7 35 -10 60 -3 25 -8 52 -10 60 -3 8 -7 33 -10 55 -4 39
-14 101 -21 140 -2 10 -6 37 -9 60 -3 22 -15 92 -25 155 -11 63 -21 126 -23
139 -5 30 -7 31 -297 151 -135 56 -258 107 -275 115 -16 7 -129 54 -250 105
-121 51 -429 180 -685 287 -256 107 -577 242 -715 300 -137 57 -290 122 -340
143 -49 21 -173 72 -275 115 -102 42 -198 83 -215 90 -16 7 -59 25 -95 40 -36
15 -84 36 -107 46 -24 11 -45 19 -48 19 -3 0 -24 9 -48 19 -23 11 -141 61
-262 111 -121 50 -233 97 -250 105 -81 36 -178 75 -186 75 -5 0 -9 -5 -9 -11z"/>
<path d="M15 27871 c7 -20 118 -299 248 -621 129 -322 312 -778 407 -1015 95
-236 178 -443 185 -460 7 -16 48 -118 91 -225 42 -107 83 -208 90 -225 7 -16
36 -88 64 -160 28 -71 55 -139 60 -150 5 -11 19 -45 31 -75 11 -30 27 -68 34
-85 7 -16 75 -185 150 -375 76 -190 143 -358 150 -375 7 -16 108 -268 225
-560 117 -291 222 -555 235 -585 13 -30 55 -134 93 -230 103 -259 722 -1800
737 -1835 7 -16 43 -106 80 -200 37 -93 73 -183 80 -200 7 -16 25 -61 40 -100
15 -38 33 -83 40 -100 7 -16 22 -55 34 -85 12 -30 26 -64 31 -75 5 -11 46
-112 90 -225 44 -113 84 -214 89 -225 15 -36 28 -69 61 -150 18 -44 36 -89 41
-100 10 -24 256 -637 549 -1370 117 -291 218 -543 225 -560 7 -16 34 -84 60
-150 26 -66 53 -133 60 -150 8 -16 37 -88 65 -160 28 -71 56 -141 62 -155 20
-47 28 -65 79 -195 28 -71 60 -149 70 -172 10 -23 19 -48 19 -55 0 -8 4 -18 8
-24 5 -5 23 -47 41 -94 17 -47 36 -94 41 -105 26 -59 52 -121 54 -130 2 -5 8
-21 14 -35 5 -14 28 -70 50 -125 123 -310 427 -1066 443 -1102 10 -23 19 -48
19 -55 0 -8 4 -18 9 -23 4 -6 32 -71 61 -145 29 -74 58 -148 66 -165 7 -16 54
-133 104 -260 50 -126 97 -243 104 -260 7 -16 43 -106 81 -200 37 -93 81 -201
97 -240 17 -38 31 -74 33 -80 1 -5 7 -21 12 -35 6 -14 129 -320 273 -680 144
-360 268 -668 275 -685 13 -28 119 -294 425 -1060 73 -181 141 -349 151 -372
10 -24 19 -45 19 -48 0 -2 29 -75 64 -162 35 -87 87 -216 116 -288 29 -71 58
-143 65 -160 7 -16 43 -106 80 -200 37 -93 73 -183 80 -200 7 -16 22 -55 34
-85 12 -30 26 -64 31 -75 4 -11 13 -35 20 -52 l12 -33 1800 0 c1704 0 1799 1
1805 17 9 27 322 815 333 838 5 11 38 92 74 180 82 204 80 200 106 265 11 30
25 64 30 75 12 27 80 197 84 210 1 6 8 21 14 35 6 14 61 151 123 305 61 154
117 294 124 310 7 17 86 212 174 435 89 223 166 414 171 425 5 11 37 90 70
175 34 85 68 169 76 187 7 17 14 34 14 38 0 4 6 21 14 38 8 18 85 208 171 422
86 215 160 399 165 410 8 18 406 1011 852 2125 82 206 159 394 169 417 10 24
19 46 19 50 0 5 19 51 41 103 23 52 42 100 44 105 1 6 7 21 12 35 6 14 102
252 213 530 111 278 210 523 220 545 10 22 21 51 25 65 4 14 15 43 25 65 10
22 100 245 200 495 100 250 188 469 195 485 7 17 18 46 25 65 7 19 21 53 30
75 10 22 30 72 44 110 15 39 33 84 41 100 7 17 113 280 235 585 122 305 228
569 235 585 7 17 54 134 104 260 51 127 96 239 101 250 5 11 59 146 120 300
132 331 124 314 138 345 12 27 334 827 362 900 39 102 61 156 70 175 15 31 99
242 130 326 15 41 37 95 48 120 11 24 54 132 97 239 42 107 83 209 90 225 7
17 36 89 64 160 29 72 56 139 61 150 5 11 64 157 130 325 66 168 125 314 130
325 11 24 348 863 400 995 49 125 159 400 170 425 10 20 308 765 542 1350 65
165 124 309 129 320 11 25 89 216 93 230 2 6 7 19 11 30 5 11 23 56 41 100 17
44 39 97 48 118 9 20 15 38 14 39 -2 1 -989 2 -2194 3 l-2190 2 -199 -536
c-109 -294 -205 -551 -212 -571 -6 -19 -55 -150 -108 -290 -53 -140 -97 -262
-100 -270 -2 -8 -49 -136 -105 -285 -55 -148 -111 -299 -124 -335 -13 -36 -27
-74 -31 -85 -16 -40 -43 -114 -119 -320 -43 -115 -88 -237 -101 -270 -13 -33
-49 -130 -80 -215 -31 -85 -60 -164 -65 -175 -12 -30 -35 -89 -36 -95 0 -3 -4
-12 -7 -20 -12 -27 -88 -234 -113 -305 -13 -38 -28 -79 -33 -90 -11 -24 -100
-263 -106 -285 -2 -8 -55 -152 -118 -320 -63 -168 -149 -399 -192 -515 -42
-115 -80 -219 -85 -230 -8 -16 -215 -576 -522 -1405 -27 -74 -84 -225 -125
-335 -41 -110 -83 -222 -93 -250 -9 -27 -40 -113 -69 -190 -76 -203 -234 -626
-298 -800 -30 -82 -98 -265 -150 -405 -213 -572 -346 -931 -488 -1315 -98
-266 -106 -288 -116 -310 -4 -11 -53 -141 -108 -290 -201 -545 -232 -631 -246
-665 -8 -19 -30 -80 -50 -135 -20 -55 -40 -109 -44 -120 -5 -11 -18 -45 -29
-75 -11 -30 -34 -91 -50 -135 -17 -44 -87 -235 -157 -425 -70 -190 -141 -383
-160 -430 -18 -47 -63 -168 -100 -270 -81 -224 -92 -250 -99 -230 -25 70 -261
706 -276 745 -10 28 -48 129 -84 225 -35 96 -69 186 -75 200 -5 14 -83 223
-171 465 -89 242 -166 450 -171 463 -5 12 -13 32 -18 45 -6 12 -35 92 -66 177
-67 183 -135 367 -215 580 -32 85 -106 286 -165 445 -58 160 -110 299 -115
310 -5 11 -32 83 -60 160 -28 77 -54 149 -59 160 -9 23 -12 30 -149 400 -55
149 -126 340 -157 425 -55 151 -79 214 -96 255 -10 23 -192 518 -251 680 -21
61 -43 119 -48 130 -8 18 -85 224 -176 475 -56 151 -75 203 -85 229 -12 30
-443 1191 -550 1481 -44 118 -84 224 -89 235 -9 19 -34 88 -65 180 -7 22 -77
209 -155 415 -77 206 -142 382 -145 390 -2 8 -16 47 -30 85 -39 103 -76 202
-138 370 -30 83 -60 161 -65 175 -6 14 -43 113 -82 220 -39 107 -75 204 -80
215 -9 21 -280 752 -350 945 -23 63 -47 129 -54 145 -7 17 -26 66 -41 110 -16
44 -32 84 -37 89 -4 6 -8 16 -8 24 0 7 -11 41 -24 75 -14 34 -63 168 -111 297
-48 129 -95 258 -106 285 -11 28 -73 194 -138 370 l-119 320 -2245 1 -2245 1
13 -36z"/>
</g>
</svg>
